<?xml version="1.0" standalone="no"?>
<!DOCTYPE svg PUBLIC "-//W3C//DTD SVG 20010904//EN"
 "http://www.w3.org/TR/2001/REC-SVG-20010904/DTD/svg10.dtd">
<svg version="1.0" xmlns="http://www.w3.org/2000/svg"
 width="323.000000pt" height="323.000000pt" viewBox="0 0 323.000000 323.000000"
 preserveAspectRatio="xMidYMid meet">
<metadata>
Created by potrace 1.11, written by Peter Selinger 2001-2013
</metadata>
<g transform="translate(0.000000,323.000000) scale(0.100000,-0.100000)"
fill="#000000" stroke="none">
<path d="M1541 3204 c-89 -45 -135 -131 -120 -226 19 -117 109 -190 231 -184
115 6 201 99 200 217 -1 163 -166 265 -311 193z"/>
<path d="M888 2686 c-1 -2 -28 -6 -58 -9 -199 -22 -433 -107 -596 -218 l-41
-28 13 -75 c69 -399 278 -724 618 -958 l79 -55 3 -114 c1 -63 5 -130 9 -149
21 -123 27 -154 41 -202 8 -29 19 -62 23 -73 5 -11 15 -36 22 -55 27 -75 84
-187 134 -265 109 -170 323 -371 488 -459 l48 -25 52 31 c314 184 554 490 652
832 43 150 57 250 56 422 l-1 132 58 43 c165 124 326 327 419 527 31 69 77
197 88 246 2 12 7 32 10 46 3 14 12 67 19 118 15 109 17 105 -76 150 -121 58
-237 93 -418 128 -65 12 -306 11 -396 -1 -147 -21 -279 -60 -408 -120 l-59
-27 -67 31 c-179 83 -352 122 -562 126 -80 2 -148 2 -150 1z m312 -221 c57
-10 226 -56 240 -65 10 -6 1 -20 -35 -52 -222 -196 -370 -426 -446 -690 -12
-43 -25 -78 -29 -78 -7 0 -157 123 -180 148 -155 168 -254 338 -308 529 l-20
71 72 35 c88 43 214 82 321 101 80 14 314 14 385 1z m1365 -9 c44 -10 116 -30
160 -44 92 -31 91 -29 62 -137 -39 -148 -120 -312 -210 -429 -43 -55 -178
-196 -188 -196 -4 0 -19 35 -34 78 -74 211 -180 378 -347 545 -65 65 -118 120
-118 122 0 7 111 40 205 60 128 27 348 28 470 1z m-834 -216 c123 -92 260
-247 337 -382 37 -64 88 -190 113 -276 l18 -63 -67 -31 c-37 -17 -74 -34 -82
-38 -23 -11 -151 -49 -185 -55 -245 -44 -422 -33 -647 41 -43 14 -80 30 -83
35 -12 18 47 206 95 306 59 125 130 228 218 322 68 72 198 180 218 181 6 0 35
-18 65 -40z m490 -962 c7 -81 -14 -243 -46 -352 -58 -200 -166 -379 -320 -530
-64 -64 -170 -146 -188 -146 -14 0 -110 73 -171 130 -55 51 -147 161 -193 232
-59 92 -130 254 -149 339 -20 95 -33 173 -38 231 l-5 66 32 -10 c180 -57 250
-69 437 -73 216 -5 392 26 567 99 69 29 73 30 74 14z"/>
<path d="M438 1298 c-20 -5 -54 -25 -76 -43 -121 -105 -99 -291 44 -361 46
-23 63 -26 115 -21 81 7 134 43 172 116 87 173 -64 356 -255 309z"/>
<path d="M2748 1294 c-161 -56 -202 -261 -75 -369 122 -105 312 -49 354 105
45 163 -121 320 -279 264z"/>
</g>
</svg>
