<svg xmlns="http://www.w3.org/2000/svg" xmlns:xlink="http://www.w3.org/1999/xlink" viewBox="0 0 283.64 322.42"><defs><style>.cls-1{fill:url(#Gradiente_sem_nome_19);}.cls-2{fill:url(#Gradiente_sem_nome_19-2);}.cls-3{fill:url(#Gradiente_sem_nome_19-3);}.cls-4{fill:url(#Gradiente_sem_nome_19-4);}</style><linearGradient id="Gradiente_sem_nome_19" y1="188.19" x2="283.64" y2="188.19" gradientUnits="userSpaceOnUse"><stop offset="0" stop-color="#f7043a"/><stop offset="0.78" stop-color="#d30162"/></linearGradient><linearGradient id="Gradiente_sem_nome_19-2" x1="8.68" y1="213.93" x2="52.18" y2="213.93" gradientTransform="translate(84.18 4.64) rotate(22.5)" xlink:href="#Gradiente_sem_nome_19"/><linearGradient id="Gradiente_sem_nome_19-3" x1="122.13" y1="21.75" x2="165.64" y2="21.75" xlink:href="#Gradiente_sem_nome_19"/><linearGradient id="Gradiente_sem_nome_19-4" x1="240.13" y1="213.93" x2="283.64" y2="213.93" gradientTransform="translate(101.8 -83.93) rotate(22.5)" xlink:href="#Gradiente_sem_nome_19"/></defs><title>logoredesocial</title><g id="Camada_2" data-name="Camada 2"><g id="Camada_1-2" data-name="Camada 1"><path class="cls-1" d="M280.52,95.08a139.07,139.07,0,0,0,3.12-22.39A141.43,141.43,0,0,0,213.11,54a141.38,141.38,0,0,0-66,16.25A142.07,142.07,0,0,0,0,79.37a139.52,139.52,0,0,0,4.28,22.68A142.93,142.93,0,0,0,71,187.92c-.16,2.77-.25,5.58-.25,8.39a142.86,142.86,0,0,0,76.36,126.11,144.59,144.59,0,0,0,20.6-13.21,142.2,142.2,0,0,0,55.74-112.9,139.33,139.33,0,0,0-.81-15.09A142.61,142.61,0,0,0,280.52,95.08Zm-133.41-.93a122,122,0,0,1,53,76.77,121.47,121.47,0,0,1-107,5A121.78,121.78,0,0,1,147.11,94.15ZM22.54,89.69a121.49,121.49,0,0,1,104-6.27,142.49,142.49,0,0,0-52.38,82.11A122,122,0,0,1,22.54,89.69ZM202.77,196.31a121.64,121.64,0,0,1-55.66,102.17A121.57,121.57,0,0,1,91.45,197.55a142.29,142.29,0,0,0,111.26-4.73C202.75,194,202.77,195.16,202.77,196.31ZM167.71,83.42a121.55,121.55,0,0,1,93.78,1.26,121.58,121.58,0,0,1-43.13,73.88A142.66,142.66,0,0,0,167.71,83.42Z"/><circle class="cls-2" cx="30.43" cy="213.93" r="21.75" transform="translate(-79.55 27.93) rotate(-22.5)"/><circle class="cls-3" cx="143.89" cy="21.75" r="21.75"/><circle class="cls-4" cx="261.89" cy="213.93" r="21.75" transform="translate(-61.93 116.5) rotate(-22.5)"/></g></g></svg>